# xmcd
#
# Track frame offsets:
# 150
# 1520
# 11026
# 17714
# 30766
# 42779
# 48817
# 56926
# 60914
# 76643
# 87376
# 95196
#
# Disc length: 1506 seconds
#
# Revision: 1
# Processed by: cddbd v1.5.2PL0 Copyright (c) Steve Scherf et al.
# Submitted via: CedeCatalogueitor 2.6.0.6 http://personales.ya.com/cdcatalogueitor
#
DISCID=7a05e00c
DTITLE=Anticonceptivas - Arte
DYEAR=1900
DGENRE=
TTITLE0=El Guitarra Fai Piu Y El Bateria Ponse Loco
TTITLE1=Las Monjas De Clausura
TTITLE2=El Buen Amor
TTITLE3=La Chica Sin Pierna
TTITLE4=No Soy Igual
TTITLE5=Gulpiyuri
TTITLE6=El Día De Los Pobres
TTITLE7=Enanos De Nueva York
TTITLE8=Fosa Común
TTITLE9=Mejor Sin Ti
TTITLE10=El Barco Velero
TTITLE11=De Lo Acontecido En La Acalorada Discusión Entre Una Madre Y Su Hijo Aún Alojado En Su Vientre
EXTD=
EXTT0=
EXTT1=
EXTT2=
EXTT3=
EXTT4=
EXTT5=
EXTT6=
EXTT7=
EXTT8=
EXTT9=
EXTT10=
EXTT11=
PLAYORDER=
